<svg width="100" height="100" viewBox="0 0 100 100" fill="none" xmlns="http://www.w3.org/2000/svg">
  <defs>
    <linearGradient id="logo-grad" x1="0%" y1="0%" x2="100%" y2="100%">
      <stop offset="0%" stop-color="#8b5cf6" />
      <stop offset="100%" stop-color="#4f46e5" />
    </linearGradient>
    <filter id="glow" x="-20%" y="-20%" width="140%" height="140%">
      <blur stdDeviation="2" />
    </filter>
  </defs>
  <circle cx="50" cy="50" r="40" stroke="url(#logo-grad)" stroke-width="2" stroke-dasharray="4 4" opacity="0.5" />
  <path d="M30 50C30 38.9543 38.9543 30 50 30C61.0457 30 70 38.9543 70 50C70 61.0457 61.0457 70 50 70C38.9543 70 30 61.0457 30 50Z" stroke="url(#logo-grad)" stroke-width="4" />
  <path d="M40 50C40 44.4772 44.4772 40 50 40C55.5228 40 60 44.4772 60 50C60 55.5228 55.5228 60 50 60C44.4772 60 40 55.5228 40 50Z" fill="url(#logo-grad)" filter="url(#glow)" />
  <path d="M50 20V30" stroke="url(#logo-grad)" stroke-width="2" stroke-linecap="round" />
  <path d="M50 70V80" stroke="url(#logo-grad)" stroke-width="2" stroke-linecap="round" />
  <path d="M20 50H30" stroke="url(#logo-grad)" stroke-width="2" stroke-linecap="round" />
  <path d="M70 50H80" stroke="url(#logo-grad)" stroke-width="2" stroke-linecap="round" />
</svg>
